<mxfile host="app.diagrams.net" modified="2023-05-03T17:19:32.249Z" agent="Mozilla/5.0 (Windows NT 10.0; Win64; x64) AppleWebKit/537.36 (KHTML, like Gecko) Chrome/112.0.0.0 Safari/537.36" etag="XH0qffqf7RrpcyPKZrc5" version="21.2.2" type="github">
  <diagram name="Page-1" id="1N_BfzQ-c7qrkwQ4BjGS">
    <mxGraphModel dx="1195" dy="583" grid="1" gridSize="10" guides="1" tooltips="1" connect="1" arrows="1" fold="1" page="1" pageScale="1" pageWidth="3300" pageHeight="4681" math="0" shadow="0">
      <root>
        <mxCell id="0" />
        <mxCell id="1" parent="0" />
        <mxCell id="5pDnqde2rJeJJsAPPPql-5" style="edgeStyle=orthogonalEdgeStyle;rounded=0;orthogonalLoop=1;jettySize=auto;html=1;entryX=0;entryY=0.5;entryDx=0;entryDy=0;" edge="1" parent="1" source="5pDnqde2rJeJJsAPPPql-1" target="5pDnqde2rJeJJsAPPPql-2">
          <mxGeometry relative="1" as="geometry" />
        </mxCell>
        <mxCell id="5pDnqde2rJeJJsAPPPql-1" value="Create Socket&lt;br&gt;[IPv4/TCP]" style="rounded=1;whiteSpace=wrap;html=1;" vertex="1" parent="1">
          <mxGeometry x="470" y="250" width="120" height="60" as="geometry" />
        </mxCell>
        <mxCell id="5pDnqde2rJeJJsAPPPql-6" style="edgeStyle=orthogonalEdgeStyle;rounded=0;orthogonalLoop=1;jettySize=auto;html=1;entryX=-0.035;entryY=0.529;entryDx=0;entryDy=0;entryPerimeter=0;" edge="1" parent="1" source="5pDnqde2rJeJJsAPPPql-2" target="5pDnqde2rJeJJsAPPPql-3">
          <mxGeometry relative="1" as="geometry" />
        </mxCell>
        <mxCell id="5pDnqde2rJeJJsAPPPql-2" value="Connect To Server" style="rounded=1;whiteSpace=wrap;html=1;" vertex="1" parent="1">
          <mxGeometry x="640" y="250" width="120" height="60" as="geometry" />
        </mxCell>
        <mxCell id="5pDnqde2rJeJJsAPPPql-15" style="edgeStyle=orthogonalEdgeStyle;rounded=0;orthogonalLoop=1;jettySize=auto;html=1;entryX=0;entryY=0.5;entryDx=0;entryDy=0;" edge="1" parent="1" source="5pDnqde2rJeJJsAPPPql-3" target="5pDnqde2rJeJJsAPPPql-12">
          <mxGeometry relative="1" as="geometry">
            <Array as="points">
              <mxPoint x="990" y="240" />
              <mxPoint x="990" y="195" />
            </Array>
          </mxGeometry>
        </mxCell>
        <mxCell id="5pDnqde2rJeJJsAPPPql-3" value="Input Message" style="rounded=1;whiteSpace=wrap;html=1;" vertex="1" parent="1">
          <mxGeometry x="840" y="210" width="120" height="60" as="geometry" />
        </mxCell>
        <mxCell id="5pDnqde2rJeJJsAPPPql-4" value="Receive Message" style="rounded=1;whiteSpace=wrap;html=1;" vertex="1" parent="1">
          <mxGeometry x="840" y="290" width="120" height="60" as="geometry" />
        </mxCell>
        <mxCell id="5pDnqde2rJeJJsAPPPql-9" value="" style="endArrow=none;html=1;rounded=0;" edge="1" parent="1">
          <mxGeometry width="50" height="50" relative="1" as="geometry">
            <mxPoint x="800" y="320" as="sourcePoint" />
            <mxPoint x="800" y="280" as="targetPoint" />
          </mxGeometry>
        </mxCell>
        <mxCell id="5pDnqde2rJeJJsAPPPql-10" value="" style="endArrow=classic;html=1;rounded=0;entryX=0;entryY=0.5;entryDx=0;entryDy=0;" edge="1" parent="1" target="5pDnqde2rJeJJsAPPPql-4">
          <mxGeometry width="50" height="50" relative="1" as="geometry">
            <mxPoint x="800" y="320" as="sourcePoint" />
            <mxPoint x="770" y="320" as="targetPoint" />
          </mxGeometry>
        </mxCell>
        <mxCell id="5pDnqde2rJeJJsAPPPql-11" value="&lt;b&gt;&lt;font style=&quot;font-size: 17px;&quot;&gt;Server&lt;/font&gt;&lt;/b&gt;" style="text;html=1;strokeColor=none;fillColor=none;align=center;verticalAlign=middle;whiteSpace=wrap;rounded=0;" vertex="1" parent="1">
          <mxGeometry x="470" y="400" width="60" height="30" as="geometry" />
        </mxCell>
        <mxCell id="5pDnqde2rJeJJsAPPPql-20" style="edgeStyle=orthogonalEdgeStyle;rounded=0;orthogonalLoop=1;jettySize=auto;html=1;entryX=0;entryY=0.5;entryDx=0;entryDy=0;" edge="1" parent="1" source="5pDnqde2rJeJJsAPPPql-12" target="5pDnqde2rJeJJsAPPPql-14">
          <mxGeometry relative="1" as="geometry" />
        </mxCell>
        <mxCell id="5pDnqde2rJeJJsAPPPql-12" value="IF Disconnect" style="rounded=1;whiteSpace=wrap;html=1;" vertex="1" parent="1">
          <mxGeometry x="1010" y="165" width="120" height="60" as="geometry" />
        </mxCell>
        <mxCell id="5pDnqde2rJeJJsAPPPql-13" value="Send To Server" style="rounded=1;whiteSpace=wrap;html=1;" vertex="1" parent="1">
          <mxGeometry x="1010" y="250" width="120" height="60" as="geometry" />
        </mxCell>
        <mxCell id="5pDnqde2rJeJJsAPPPql-14" value="Close Connection" style="rounded=1;whiteSpace=wrap;html=1;" vertex="1" parent="1">
          <mxGeometry x="1180" y="165" width="120" height="60" as="geometry" />
        </mxCell>
        <mxCell id="5pDnqde2rJeJJsAPPPql-16" value="" style="endArrow=none;html=1;rounded=0;" edge="1" parent="1">
          <mxGeometry width="50" height="50" relative="1" as="geometry">
            <mxPoint x="990" y="280" as="sourcePoint" />
            <mxPoint x="990" y="240" as="targetPoint" />
          </mxGeometry>
        </mxCell>
        <mxCell id="5pDnqde2rJeJJsAPPPql-19" value="" style="endArrow=classic;html=1;rounded=0;entryX=0;entryY=0.5;entryDx=0;entryDy=0;" edge="1" parent="1" target="5pDnqde2rJeJJsAPPPql-13">
          <mxGeometry width="50" height="50" relative="1" as="geometry">
            <mxPoint x="990" y="280" as="sourcePoint" />
            <mxPoint x="960" y="290" as="targetPoint" />
          </mxGeometry>
        </mxCell>
        <mxCell id="5pDnqde2rJeJJsAPPPql-21" value="&lt;b&gt;&lt;font style=&quot;font-size: 17px;&quot;&gt;Client&lt;/font&gt;&lt;/b&gt;" style="text;html=1;strokeColor=none;fillColor=none;align=center;verticalAlign=middle;whiteSpace=wrap;rounded=0;" vertex="1" parent="1">
          <mxGeometry x="480" y="190" width="60" height="30" as="geometry" />
        </mxCell>
        <mxCell id="5pDnqde2rJeJJsAPPPql-25" style="edgeStyle=orthogonalEdgeStyle;rounded=0;orthogonalLoop=1;jettySize=auto;html=1;entryX=0;entryY=0.5;entryDx=0;entryDy=0;" edge="1" parent="1" source="5pDnqde2rJeJJsAPPPql-22" target="5pDnqde2rJeJJsAPPPql-23">
          <mxGeometry relative="1" as="geometry" />
        </mxCell>
        <mxCell id="5pDnqde2rJeJJsAPPPql-22" value="Create Socket&lt;br&gt;[IPv4/TCP]" style="rounded=1;whiteSpace=wrap;html=1;" vertex="1" parent="1">
          <mxGeometry x="470" y="450" width="120" height="60" as="geometry" />
        </mxCell>
        <mxCell id="5pDnqde2rJeJJsAPPPql-23" value="Bind To IP and Port" style="rounded=1;whiteSpace=wrap;html=1;" vertex="1" parent="1">
          <mxGeometry x="630" y="450" width="120" height="60" as="geometry" />
        </mxCell>
        <mxCell id="5pDnqde2rJeJJsAPPPql-24" value="Listen For Connection&lt;br&gt;and Accept" style="rounded=1;whiteSpace=wrap;html=1;" vertex="1" parent="1">
          <mxGeometry x="790" y="450" width="120" height="60" as="geometry" />
        </mxCell>
        <mxCell id="5pDnqde2rJeJJsAPPPql-26" style="edgeStyle=orthogonalEdgeStyle;rounded=0;orthogonalLoop=1;jettySize=auto;html=1;entryX=0;entryY=0.5;entryDx=0;entryDy=0;" edge="1" parent="1">
          <mxGeometry relative="1" as="geometry">
            <mxPoint x="750" y="479.71" as="sourcePoint" />
            <mxPoint x="790" y="479.71" as="targetPoint" />
            <Array as="points">
              <mxPoint x="771" y="480" />
              <mxPoint x="771" y="480" />
            </Array>
          </mxGeometry>
        </mxCell>
        <mxCell id="5pDnqde2rJeJJsAPPPql-27" value="Send Message" style="rounded=1;whiteSpace=wrap;html=1;" vertex="1" parent="1">
          <mxGeometry x="990" y="400" width="120" height="60" as="geometry" />
        </mxCell>
        <mxCell id="5pDnqde2rJeJJsAPPPql-33" style="edgeStyle=orthogonalEdgeStyle;rounded=0;orthogonalLoop=1;jettySize=auto;html=1;entryX=0;entryY=0.5;entryDx=0;entryDy=0;" edge="1" parent="1" source="5pDnqde2rJeJJsAPPPql-28" target="5pDnqde2rJeJJsAPPPql-32">
          <mxGeometry relative="1" as="geometry" />
        </mxCell>
        <mxCell id="5pDnqde2rJeJJsAPPPql-28" value="Receive Message" style="rounded=1;whiteSpace=wrap;html=1;" vertex="1" parent="1">
          <mxGeometry x="990" y="490" width="120" height="60" as="geometry" />
        </mxCell>
        <mxCell id="5pDnqde2rJeJJsAPPPql-29" style="edgeStyle=orthogonalEdgeStyle;rounded=0;orthogonalLoop=1;jettySize=auto;html=1;entryX=0;entryY=0.5;entryDx=0;entryDy=0;" edge="1" parent="1" target="5pDnqde2rJeJJsAPPPql-27">
          <mxGeometry relative="1" as="geometry">
            <mxPoint x="910" y="478.65999999999997" as="sourcePoint" />
            <mxPoint x="986" y="440.65999999999997" as="targetPoint" />
          </mxGeometry>
        </mxCell>
        <mxCell id="5pDnqde2rJeJJsAPPPql-30" value="" style="endArrow=none;html=1;rounded=0;" edge="1" parent="1">
          <mxGeometry width="50" height="50" relative="1" as="geometry">
            <mxPoint x="950" y="518.66" as="sourcePoint" />
            <mxPoint x="950" y="478.65999999999997" as="targetPoint" />
          </mxGeometry>
        </mxCell>
        <mxCell id="5pDnqde2rJeJJsAPPPql-31" value="" style="endArrow=classic;html=1;rounded=0;entryX=0;entryY=0.5;entryDx=0;entryDy=0;" edge="1" parent="1">
          <mxGeometry width="50" height="50" relative="1" as="geometry">
            <mxPoint x="950" y="518.66" as="sourcePoint" />
            <mxPoint x="990" y="518.66" as="targetPoint" />
          </mxGeometry>
        </mxCell>
        <mxCell id="5pDnqde2rJeJJsAPPPql-35" style="edgeStyle=orthogonalEdgeStyle;rounded=0;orthogonalLoop=1;jettySize=auto;html=1;entryX=0;entryY=0.5;entryDx=0;entryDy=0;" edge="1" parent="1" source="5pDnqde2rJeJJsAPPPql-32" target="5pDnqde2rJeJJsAPPPql-34">
          <mxGeometry relative="1" as="geometry" />
        </mxCell>
        <mxCell id="5pDnqde2rJeJJsAPPPql-32" value="IF Disconnect" style="rounded=1;whiteSpace=wrap;html=1;" vertex="1" parent="1">
          <mxGeometry x="1140" y="490" width="120" height="60" as="geometry" />
        </mxCell>
        <mxCell id="5pDnqde2rJeJJsAPPPql-34" value="Close Connection" style="rounded=1;whiteSpace=wrap;html=1;" vertex="1" parent="1">
          <mxGeometry x="1290" y="490" width="120" height="60" as="geometry" />
        </mxCell>
      </root>
    </mxGraphModel>
  </diagram>
</mxfile>
